<svg xmlns="http://www.w3.org/2000/svg" xmlns:xlink="http://www.w3.org/1999/xlink" viewBox="0,0,256,256" width="150px" height="150px" fill-rule="nonzero"><g fill="#fffafa" fill-rule="nonzero" stroke="none" stroke-width="1" stroke-linecap="butt" stroke-linejoin="miter" stroke-miterlimit="10" stroke-dasharray="" stroke-dashoffset="0" font-family="none" font-weight="none" font-size="none" text-anchor="none" style="mix-blend-mode: normal"><g transform="scale(5.12,5.12)"><path d="M6,6c-1.654,0 -3,1.346 -3,3v32c0,1.654 1.346,3 3,3h22.99805c-0.531,-0.617 -1.02036,-1.282 -1.44336,-2h-21.55469c-0.551,0 -1,-0.448 -1,-1v-27h40v14.13867c0.7,0.124 1.37,0.33223 2,0.61523v-19.75391c0,-1.654 -1.346,-3 -3,-3zM6,8h38c0.551,0 1,0.448 1,1v3h-40v-3c0,-0.552 0.449,-1 1,-1zM7,9c-0.55228,0 -1,0.44772 -1,1c0,0.55228 0.44772,1 1,1c0.55228,0 1,-0.44772 1,-1c0,-0.55228 -0.44772,-1 -1,-1zM10,9c-0.55228,0 -1,0.44772 -1,1c0,0.55228 0.44772,1 1,1c0.55228,0 1,-0.44772 1,-1c0,-0.55228 -0.44772,-1 -1,-1zM13,9c-0.55228,0 -1,0.44772 -1,1c0,0.55228 0.44772,1 1,1c0.55228,0 1,-0.44772 1,-1c0,-0.55228 -0.44772,-1 -1,-1zM34.5,30c-3.6,0 -6.5,2.90039 -6.5,6.40039c0,5.5 4.99922,8.80039 8.19922,10.90039c0.9,0.6 1.60156,1 2.10156,1.5l0.59961,0.5l0.59961,-0.5c0.5,-0.4 1.29961,-0.9 2.09961,-1.5c3.4,-2.2 8.40039,-5.40039 8.40039,-10.90039c0,-3.5 -2.9,-6.40039 -6.5,-6.40039c-1.7,0 -3.3,0.70078 -4.5,1.80078c-1.2,-1.1 -2.8,-1.80078 -4.5,-1.80078zM34.5,32c1.5,0 2.79922,0.7 3.69922,2l0.80078,1.19922l0.80078,-1.19922c0.8,-1.2 2.19922,-2 3.69922,-2c2.5,0 4.5,2.00039 4.5,4.40039c0,4.4 -4.20078,7.19922 -7.30078,9.19922c-0.7,0.4 -1.19922,0.79961 -1.69922,1.09961c-0.5,-0.4 -0.99922,-0.69961 -1.69922,-1.09961c-3.1,-2 -7.30078,-4.79922 -7.30078,-9.19922c0,-2.4 2,-4.40039 4.5,-4.40039z"></path></g></g></svg>